#!OML:ASF H:\Terrain\Walking\May29\JustinRory\Justin.ASF
:FULLY-SPECIFIED
:DEGREES
241
root 7.56964 16.6001 -15.662 -0.680546 1.39458 -2.8258
lowerback 11.6228 -0.277851 -0.465942
upperback 2.84169 -0.313077 2.60535
thorax -3.52608 -0.148187 3.02588
lowerneck -20.0169 -3.68674 -8.14959
upperneck 13.0875 -3.82068 6.23233
head 7.58066 -1.63965 2.92092
rclavicle 4.62174e-015 -8.34896e-015
rhumerus -29.5044 32.1743 -51.4431
rradius 134.487
rwrist -21.4066
rhand -30.1033 48.2057
rfingers 7.12502
rthumb -3.41718 18.2534
lclavicle 4.62174e-015 -8.34896e-015
lhumerus -42.9256 -25.5021 85.4647
lradius 126.276
lwrist 10.8068
lhand -5.07752 20.8265
lfingers 7.12502
lthumb 20.7189 49.7405
rfemur -15.67 -8.50623 21.2132
rtibia 46.0272
rfoot -25.3176 -10.6032
rtoes -7.98039
lfemur -17.0988 8.74611 -11.4888
ltibia 47.317
lfoot -27.1107 -3.51287
ltoes -19.7148
242
root 7.53318 16.5864 -15.6795 -0.575849 2.16119 -3.16757
lowerback 11.6605 -0.391977 -0.524898
upperback 2.74776 -0.456204 2.88837
thorax -3.63386 -0.216038 3.37894
lowerneck -19.8945 -3.79261 -8.436
upperneck 13.125 -3.918 6.35538
head 7.58869 -1.69119 2.99728
rclavicle 1.27222e-014 -3.97569e-015
rhumerus -31.2462 30.424 -54.5594
rradius 134.725
rwrist -21.377
rhand -28.289 47.7826
rfingers 7.12502
rthumb -1.66499 17.8093
lclavicle 1.27222e-014 -3.97569e-015
lhumerus -42.6454 -28.1897 83.538
lradius 126.569
lwrist 12.3597
lhand -4.40508 20.6567
lfingers 7.12502
lthumb 21.3649 49.4988
rfemur -15.977 -8.72969 21.775
rtibia 46.2923
rfoot -25.5076 -11.0135
rtoes -7.26589
lfemur -17.5946 8.4702 -11.0403
ltibia 47.4673
lfoot -27.1151 -3.65853
ltoes -20.4076
243
root 7.49749 16.5779 -15.6903 -0.642602 2.85129 -3.18249
lowerback 11.686 -0.452098 -0.89636
upperback 2.84049 -0.572203 3.09912
thorax -3.53727 -0.272354 3.82793
lowerneck -19.145 -3.75172 -8.71725
upperneck 12.2305 -3.85067 6.56201
head 7.17395 -1.66277 3.11886
rclavicle -3.47873e-015 -8.34896e-015
rhumerus -32.5036 28.5787 -57.3007
rradius 134.909
rwrist -21.4818
rhand -26.6027 47.1912
rfingers 7.12502
rthumb -0.0363316 17.2114
lclavicle -3.47873e-015 -8.34896e-015
lhumerus -41.7991 -30.8579 81.0335
lradius 126.891
lwrist 13.3988
lhand -3.58066 20.3683
lfingers 7.12502
lthumb 22.1566 49.1186
rfemur -16.0273 -9.01705 21.9411
rtibia 46.5207
rfoot -25.6244 -11.4699
rtoes -7.49745
lfemur -17.8199 8.11342 -10.9007
ltibia 47.5646
lfoot -27.035 -4.21442
ltoes -19.3439
244
root 7.47715 16.5693 -15.6861 -0.847847 3.52893 -2.60523
lowerback 11.7088 -0.483835 -1.6861
upperback 3.02678 -0.70936 3.13221
thorax -3.33356 -0.340905 4.33019
lowerneck -17.7831 -3.75828 -8.63822
upperneck 10.6976 -3.90612 6.35994
head 6.44948 -1.7201 3.03325
rclavicle -5.96354e-015 5.1684e-015
rhumerus -33.6519 26.8445 -59.9307
rradius 134.929
rwrist -21.3303
rhand -24.9278 46.5755
rfingers 7.12502
rthumb 1.58133 16.6016
lclavicle -5.96354e-015 5.1684e-015
lhumerus -40.547 -33.1209 78.3561
lradius 126.977
lwrist 13.6857
lhand -2.83703 20.5069
lfingers 7.12502
lthumb 22.8704 49.1708
rfemur -15.7466 -9.56026 21.311
rtibia 46.703
rfoot -25.7689 -11.7688
rtoes -8.41126
lfemur -17.7183 7.64297 -11.4799
ltibia 47.6412
lfoot -27.1239 -4.44079
ltoes -19.3455
245
root 7.45528 16.5574 -15.6862 -0.930505 4.12945 -2.42345
lowerback 11.7259 -0.518849 -2.08136
upperback 3.09611 -0.798281 3.24808
thorax -3.25442 -0.385429 4.69033
lowerneck -18.0279 -3.97825 -10.3639
upperneck 10.9855 -3.99797 7.86764
head 6.66022 -1.70826 3.8005
rclavicle -9.14409e-015 2.34566e-014
rhumerus -34.9799 25.262 -62.7808
rradius 134.873
rwrist -20.8282
rhand -23.1445 46.1694
rfingers 7.12502
rthumb 3.30357 16.2153
lclavicle -9.14409e-015 2.34566e-014
lhumerus -39.1338 -35.304 75.3441
lradius 126.949
lwrist 13.7765
lhand -2.37451 20.6838
lfingers 7.12502
lthumb 23.3141 49.2921
rfemur -15.6179 -9.90416 21.1781
rtibia 46.8455
rfoot -26.0429 -12.012
rtoes -8.33441
lfemur -17.799 7.27193 -11.6145
ltibia 47.7553
lfoot -27.2658 -4.58538
ltoes -20.0989
246
root 7.41963 16.5395 -15.701 -0.963093 4.45452 -2.86235
lowerback 11.9365 -0.469946 -2.06225
upperback 2.98452 -0.715 3.60169
thorax -3.48987 -0.337136 5.04966
lowerneck -17.9208 -4.10518 -11.2185
upperneck 11.0284 -4.05632 8.41906
head 6.69286 -1.72951 4.11763
rclavicle -1.78906e-015 1.43125e-014
rhumerus -36.3643 24.0111 -65.4136
rradius 134.933
rwrist -20.514
rhand -21.5919 45.8457
rfingers 7.12502
rthumb 4.80285 15.9201
lclavicle -1.78906e-015 1.43125e-014
lhumerus -37.9187 -37.3995 72.3528
lradius 126.98
lwrist 13.7023
lhand -2.08737 20.553
lfingers 7.12502
lthumb 23.5896 49.1261
rfemur -15.747 -9.77924 21.8753
rtibia 47.0104
rfoot -26.3581 -12.3679
rtoes -7.10584
lfemur -18.0668 7.13613 -10.9753
ltibia 47.9466
lfoot -27.3556 -4.88184
ltoes -20.3835
247
root 7.39975 16.5254 -15.7173 -1.04889 4.80462 -3.09608
lowerback 12.3636 -0.473596 -2.05928
upperback 2.74318 -0.703793 3.85578
thorax -3.97521 -0.316358 5.3325
lowerneck -18.1043 -4.27056 -11.5307
upperneck 11.5904 -4.19023 8.31216
head 6.92314 -1.8177 4.12122
rclavicle 5.46658e-015 -4.77083e-015
rhumerus -37.5083 23.409 -67.5293
rradius 134.979
rwrist -20.432
rhand -20.6397 45.5434
rfingers 7.12502
rthumb 5.72224 15.6406
lclavicle 5.46658e-015 -4.77083e-015
lhumerus -36.8933 -39.0437 69.3919
lradius 127.123
lwrist 13.7171
lhand -1.53392 20.5556
lfingers 7.12502
lthumb 24.1204 49.0593
rfemur -15.821 -9.99099 22.2111
rtibia 47.2306
rfoot -26.5951 -12.5179
rtoes -6.23621
lfemur -18.2692 6.93637 -10.6405
ltibia 48.1794
lfoot -27.3489 -5.09113
ltoes -19.9437
248
root 7.38551 16.5168 -15.736 -1.04985 5.16031 -2.95416
lowerback 12.6009 -0.527663 -2.39701
upperback 2.65188 -0.812863 3.95778
thorax -4.18284 -0.360083 5.66149
lowerneck -19.0326 -4.21357 -11.5318
upperneck 12.4771 -4.02339 8.1858
head 7.34708 -1.73769 4.10436
rclavicle -6.36111e-015 -1.82882e-014
rhumerus -38.0183 23.41 -69.0746
rradius 134.82
rwrist -20.1914
rhand -20.178 45.2787
rfingers 7.12502
rthumb 6.16801 15.3884
lclavicle -6.36111e-015 -1.82882e-014
lhumerus -35.3647 -40.0999 65.8558
lradius 127.444
lwrist 14.2846
lhand -0.777941 20.9406
lfingers 7.12502
lthumb 24.845 49.3463
rfemur -15.9733 -10.3607 22.1013
rtibia 47.5043
rfoot -26.706 -12.5762
rtoes -5.61114
lfemur -18.5489 6.67746 -10.7774
ltibia 48.3909
lfoot -27.1805 -5.20405
ltoes -19.2805
249
root 7.35582 16.5068 -15.75 -1.00276 5.20059 -2.58753
lowerback 12.5531 -0.374707 -3.37659
upperback 2.79568 -0.727822 4.20359
thorax -3.99642 -0.315154 6.47407
lowerneck -19.5274 -4.12476 -12.1475
upperneck 12.6434 -3.7501 8.57333
head 7.47663 -1.59326 4.37217
rclavicle -1.18277e-014 2.70347e-014
rhumerus -38.0822 23.8087 -69.7183
rradius 134.545
rwrist -20.0344
rhand -19.9954 44.8592
rfingers 7.12502
rthumb 6.34424 14.9742
lclavicle -1.18277e-014 2.70347e-014
lhumerus -33.401 -40.7094 62.3864
lradius 127.802
lwrist 15.1135
lhand -0.465802 21.1776
lfingers 7.12502
lthumb 25.1441 49.5417
rfemur -16.2239 -10.2967 21.8557
rtibia 47.7755
rfoot -26.7146 -12.7547
rtoes -5.16624
lfemur -18.7702 6.60712 -11.0949
ltibia 48.5536
lfoot -27.1163 -5.16336
ltoes -19.4224
250
root 7.33795 16.4965 -15.7498 -1.11137 5.2522 -2.40077
lowerback 12.5244 -0.296512 -3.92271
upperback 2.94175 -0.688855 4.35823
thorax -3.82131 -0.299584 6.94847
lowerneck -19.4755 -4.49412 -12.4805
upperneck 12.695 -4.11764 8.28039
head 7.526 -1.81434 4.27936
rclavicle -6.06293e-015 -2.62396e-014
rhumerus -38.2851 24.5072 -70.2462
rradius 134.29
rwrist -19.988
rhand -19.9623 44.4756
rfingers 7.12502
rthumb 6.37617 14.5916
lclavicle -6.06293e-015 -2.62396e-014
lhumerus -31.651 -41.1071 58.8957
lradius 128.218
lwrist 16.1165
lhand -0.123168 21.1043
lfingers 7.12502
lthumb 25.4724 49.4219
rfemur -16.2046 -10.3572 21.6825
rtibia 47.99
rfoot -26.9071 -12.6778
rtoes -4.43081
lfemur -18.695 6.52568 -11.2309
ltibia 48.7031
lfoot -27.2947 -4.97991
ltoes -20.5114
251
root 7.33637 16.4852 -15.7515 -1.25261 5.2204 -2.84291
lowerback 12.5429 -0.365574 -3.57399
upperback 2.99413 -0.728977 4.52787
thorax -3.77326 -0.324795 6.93493
lowerneck -19.5704 -4.55862 -12.2168
upperneck 12.8601 -4.1633 7.66721
head 7.58119 -1.88066 4.022
rclavicle 4.96962e-016 2.78299e-014
rhumerus -38.4247 25.6687 -70.6553
rradius 134.092
rwrist -19.9037
rhand -20.0627 44.2531
rfingers 7.12502
rthumb 6.27928 14.3661
lclavicle 4.96962e-016 2.78299e-014
lhumerus -30.2172 -41.1705 55.5485
lradius 128.581
lwrist 17.0717
lhand 0.361558 21.2429
lfingers 7.12502
lthumb 25.9366 49.4935
rfemur -16.1531 -10.3815 22.1565
rtibia 48.1516
rfoot -27.1216 -12.5896
rtoes -4.0282
lfemur -18.6297 6.4885 -10.6969
ltibia 48.8979
lfoot -27.3626 -5.01921
ltoes -20.831
